<svg xmlns="http://www.w3.org/2000/svg" width="1311.568" height="563.523" viewBox="0 0 1311.568 563.523"><g transform="translate(-127.5 -741.65)"><path d="M341.731,0V187.4h-187.4c0-103.5,83.9-187.4,187.4-187.4" transform="translate(721.98 742.151)" fill="#111"/><path d="M19439,7092.4c0-103.5,83.9-187.4,187.4-187.4v374.8C19522.9,7279.8,19439,7195.895,19439,7092.4Z" transform="translate(-19123.57 -5975.123)" fill="#111" stroke="rgba(0,0,0,0)" stroke-miterlimit="10" stroke-width="1"/><path d="M19625.916,7279.8h-.482v0c-103.051-.52-186.43-84.223-186.43-187.4h374.826c0,103.173-83.832,186.875-187.434,187.4v0ZM19439,7092.4c0-103.5,83.9-187.4,187.4-187.4v187.4Z" transform="translate(-18748.711 -5975.123)" fill="#111" stroke="rgba(0,0,0,0)" stroke-miterlimit="10" stroke-width="1"/><path d="M341.731,187.4V0h-187.4c0,103.5,83.9,187.4,187.4,187.4" transform="translate(348.525 929.879)" fill="#9599a2"/><path d="M341.731,0V187.4h-187.4c0-103.5,83.9-187.4,187.4-187.4" transform="translate(-26.33 1117.275)" fill="#9599a2"/><path d="M341.731,0V187.4h-187.4c0-103.5,83.9-187.4,187.4-187.4" transform="translate(534.523 742.151)" fill="#111"/><path d="M93.7,0A93.7,93.7,0,1,1,0,93.7,93.7,93.7,0,0,1,93.7,0Z" transform="translate(499.967 742.476)" fill="#2233d0"/><path d="M154.333,187.4V0h187.4c0,103.5-83.9,187.4-187.4,187.4" transform="translate(909.379 742.151)" fill="#9599a2"/><circle cx="93.7" cy="93.7" r="93.7" transform="translate(1251.109 742.476)" fill="#111"/><circle cx="93.7" cy="93.7" r="93.7" transform="translate(499.967 1117.273)" fill="#111"/><path d="M19626.4,6905h187.4c0,103.495-83.9,187.4-187.4,187.4ZM19439,7092.4c0-103.495,83.9-187.4,187.4-187.4v187.4Z" transform="translate(-19311 -6162.849)" fill="#111" stroke="rgba(0,0,0,0)" stroke-miterlimit="10" stroke-width="1"/><circle cx="93.7" cy="93.7" r="93.7" transform="translate(128 929.875)" fill="#111"/><circle cx="93.7" cy="93.7" r="93.7" transform="translate(877.715 929.875)" fill="#111"/><path d="M154.333,0V187.4h187.4c0-103.5-83.9-187.4-187.4-187.4" transform="translate(1096.809 1117.275)" fill="#9599a2"/><path d="M19625.025,7092.391C19522.156,7091.658,19439,7008.04,19439,6905h373.422c0,103.042-83.156,186.662-186.021,187.395h-.016c-.455,0-.9,0-1.357,0Z" transform="translate(-18373.852 -5975.125)" fill="#111" stroke="rgba(0,0,0,0)" stroke-miterlimit="10" stroke-width="1"/><circle cx="93.7" cy="93.7" r="93.7" transform="translate(1063.77 1117.273)" fill="#111"/></g></svg>